<mxfile host="app.diagrams.net" modified="2024-11-21T17:57:39.746Z" agent="Mozilla/5.0 (Windows NT 10.0; Win64; x64) AppleWebKit/537.36 (KHTML, like Gecko) Chrome/130.0.0.0 Safari/537.36" version="24.0.5" etag="JfhS1EZm1qLv_zl7sIlX" type="github">
  <diagram name="PÃ¡gina-1" id="v_EB41KnoN2DLpC8bVXj">
    <mxGraphModel>
      <root>
        <mxCell id="0" />
        <mxCell id="1" parent="0" />
      </root>
    </mxGraphModel>
  </diagram>
</mxfile>
